_Griffith_Gothic-Thin_Italic_WebTT.ufo
<glyph name="zero" format="1">
  <advance width="1196.032"/>
  <unicode hex="0030"/>
  <outline>
    <contour>
      <point x="1167" y="1024" type="qcurve" smooth="yes"/>
      <point x="1167" y="1020" type="line" smooth="yes"/>
      <point x="1167.0" y="934.179104478"/>
      <point x="1146.65671642" y="768.358208955"/>
      <point x="1128" y="690" type="qcurve" smooth="yes"/>
      <point x="1057.85074627" y="387.76119403"/>
      <point x="705.970149254" y="-25.0"/>
      <point x="500" y="-25" type="qcurve" smooth="yes"/>
      <point x="323.880597015" y="-25.0"/>
      <point x="135.0" y="236.820895522"/>
      <point x="135" y="451" type="qcurve" smooth="yes"/>
      <point x="135" y="455" type="line" smooth="yes"/>
      <point x="135.0" y="540.074626866"/>
      <point x="156.089552239" y="706.388059701"/>
      <point x="174" y="784" type="qcurve" smooth="yes"/>
      <point x="244.149253731" y="1086.98507463"/>
      <point x="596.28358209" y="1499.0"/>
      <point x="803" y="1499" type="qcurve" smooth="yes"/>
      <point x="978.373134328" y="1499.0"/>
      <point x="1167.0" y="1238.17910448"/>
    </contour>
    <contour>
      <point x="1030" y="664" type="qcurve" smooth="yes"/>
      <point x="1050.14925373" y="735.641791045"/>
      <point x="1077.0" y="929.194029851"/>
      <point x="1077" y="1018" type="qcurve" smooth="yes"/>
      <point x="1077" y="1022" type="line" smooth="yes"/>
      <point x="1077.0" y="1197.37313433"/>
      <point x="940.791044776" y="1425.0"/>
      <point x="799" y="1425" type="qcurve" smooth="yes"/>
      <point x="625.865671642" y="1425.0"/>
      <point x="342.895522388" y="1064.73134328"/>
      <point x="272" y="811" type="qcurve" smooth="yes"/>
      <point x="252.597014925" y="739.358208955"/>
      <point x="225.0" y="545.059701493"/>
      <point x="225" y="457" type="qcurve" smooth="yes"/>
      <point x="225" y="453" type="line" smooth="yes"/>
      <point x="225.0" y="276.880597015"/>
      <point x="361.462686567" y="49.0"/>
      <point x="504" y="49" type="qcurve" smooth="yes"/>
      <point x="676.388059701" y="49.0"/>
      <point x="959.850746269" y="410.268656716"/>
    </contour>
  </outline>
</glyph>
<glyph name="one" format="1">
  <advance width="892.928"/>
  <unicode hex="0031"/>
  <outline>
    <contour>
      <point x="326" y="1475" type="line"/>
      <point x="762" y="1475" type="line"/>
      <point x="412" y="74" type="line"/>
      <point x="727" y="74" type="line"/>
      <point x="709" y="0" type="line"/>
      <point x="-18" y="0" type="line"/>
      <point x="0" y="74" type="line"/>
      <point x="326" y="74" type="line"/>
      <point x="657" y="1401" type="line"/>
      <point x="307" y="1401" type="line"/>
    </contour>
  </outline>
</glyph>
<glyph name="four" format="1">
  <advance width="1142.784"/>
  <unicode hex="0034"/>
  <outline>
    <contour>
      <point x="948" y="1475" type="line"/>
      <point x="1098" y="1475" type="line"/>
      <point x="856" y="502" type="line"/>
      <point x="1051" y="502" type="line"/>
      <point x="1034" y="432" type="line"/>
      <point x="840" y="432" type="line"/>
      <point x="731" y="0" type="line"/>
      <point x="647" y="0" type="line"/>
      <point x="756" y="432" type="line"/>
      <point x="66" y="432" type="line"/>
      <point x="94" y="545" type="line"/>
    </contour>
    <contour>
      <point x="772" y="502" type="line"/>
      <point x="995" y="1395" type="line"/>
      <point x="967" y="1395" type="line"/>
      <point x="170" y="530" type="line"/>
      <point x="162" y="502" type="line"/>
    </contour>
  </outline>
</glyph>
<glyph name="six" format="1">
  <advance width="1107.968"/>
  <unicode hex="0036"/>
  <outline>
    <contour>
      <point x="664" y="905" type="qcurve" smooth="yes"/>
      <point x="830.417910448" y="905.0"/>
      <point x="1040.0" y="709.552238806"/>
      <point x="1040" y="520" type="qcurve" smooth="yes"/>
      <point x="1040.0" y="299.850746269"/>
      <point x="707.656716418" y="-25.0"/>
      <point x="489" y="-25" type="qcurve" smooth="yes"/>
      <point x="318.104477612" y="-25.0"/>
      <point x="100.0" y="193.417910448"/>
      <point x="100" y="377" type="qcurve" smooth="yes"/>
      <point x="100.0" y="708.343283582"/>
      <point x="568.179104478" y="1297.3880597"/>
      <point x="854" y="1475" type="qcurve"/>
      <point x="995" y="1475" type="line"/>
      <point x="713.656716418" y="1314.55223881"/>
      <point x="325.134328358" y="898.582089552"/>
      <point x="252" y="715" type="qcurve"/>
      <point x="266" y="715" type="line"/>
      <point x="362.268656716" y="811.268656716"/>
      <point x="549.074626866" y="905.0"/>
    </contour>
    <contour>
      <point x="502" y="49" type="qcurve" smooth="yes"/>
      <point x="681.850746269" y="49.0"/>
      <point x="950.0" y="324.955223881"/>
      <point x="950" y="516" type="qcurve" smooth="yes"/>
      <point x="950.0" y="666.0"/>
      <point x="793.507462687" y="831.0"/>
      <point x="645" y="831" type="qcurve" smooth="yes"/>
      <point x="468.134328358" y="831.0"/>
      <point x="186.0" y="569.985074627"/>
      <point x="186" y="367" type="qcurve" smooth="yes"/>
      <point x="186.0" y="222.970149254"/>
      <point x="357.970149254" y="49.0"/>
    </contour>
  </outline>
</glyph>
<glyph name="at" format="1">
  <advance width="2027.52"/>
  <unicode hex="0040"/>
  <outline>
    <contour>
      <point x="1073" y="1499" type="qcurve" smooth="yes"/>
      <point x="1438.67164179" y="1499.0"/>
      <point x="1942.0" y="1050.65671642"/>
      <point x="1942" y="682" type="qcurve" smooth="yes"/>
      <point x="1942.0" y="416.328358209"/>
      <point x="1653.89552239" y="68.0"/>
      <point x="1483" y="68" type="qcurve" smooth="yes"/>
      <point x="1366.58208955" y="68.0"/>
      <point x="1247.98507463" y="205.582089552"/>
      <point x="1245" y="322" type="qcurve"/>
      <point x="1235" y="322" type="line"/>
      <point x="1161.86567164" y="201.104477612"/>
      <point x="988.791044776" y="68.0"/>
      <point x="897" y="68" type="qcurve" smooth="yes"/>
      <point x="776.104477612" y="68.0"/>
      <point x="625.0" y="256.567164179"/>
      <point x="625" y="420" type="qcurve" smooth="yes"/>
      <point x="625.0" y="673.731343284"/>
      <point x="861.104477612" y="1049.0"/>
      <point x="1032" y="1049" type="qcurve" smooth="yes"/>
      <point x="1142.44776119" y="1049.0"/>
      <point x="1267.91044776" y="901.71641791"/>
      <point x="1300" y="795" type="qcurve"/>
      <point x="1311" y="793" type="line"/>
      <point x="1354" y="1044" type="line"/>
      <point x="1427" y="1006" type="line"/>
      <point x="1321" y="403" type="line" smooth="yes"/>
      <point x="1300.85074627" y="291.805970149"/>
      <point x="1379.05970149" y="123.0"/>
      <point x="1491" y="123" type="qcurve" smooth="yes"/>
      <point x="1629.80597015" y="123.0"/>
      <point x="1870.0" y="437.701492537"/>
      <point x="1870" y="678" type="qcurve" smooth="yes"/>
      <point x="1870.0" y="1026.50746269"/>
      <point x="1418.49253731" y="1438.0"/>
      <point x="1067" y="1438" type="qcurve" smooth="yes"/>
      <point x="702.074626866" y="1438.0"/>
      <point x="197.0" y="915.895522388"/>
      <point x="197" y="545" type="qcurve" smooth="yes"/>
      <point x="197.0" y="153.208955224"/>
      <point x="666.910447761" y="-332.0"/>
      <point x="1049" y="-332" type="qcurve" smooth="yes"/>
      <point x="1234.82089552" y="-332.0"/>
      <point x="1521.68656716" y="-257.373134328"/>
      <point x="1659" y="-182" type="qcurve"/>
      <point x="1690" y="-233" type="line"/>
      <point x="1547.46268657" y="-309.865671642"/>
      <point x="1243.25373134" y="-393.0"/>
      <point x="1044" y="-393" type="qcurve" smooth="yes"/>
      <point x="632.059701493" y="-393.0"/>
      <point x="123.0" y="122.850746269"/>
      <point x="123" y="543" type="qcurve" smooth="yes"/>
      <point x="123.0" y="945.985074627"/>
      <point x="684.940298507" y="1499.0"/>
    </contour>
    <contour>
      <point x="913" y="131" type="qcurve" smooth="yes"/>
      <point x="1051.05970149" y="131.0"/>
      <point x="1282.0" y="461.388059701"/>
      <point x="1282" y="639" type="qcurve" smooth="yes"/>
      <point x="1282.0" y="762.880597015"/>
      <point x="1149.94029851" y="981.0"/>
      <point x="1038" y="981" type="qcurve" smooth="yes"/>
      <point x="896.208955224" y="981.0"/>
      <point x="705.0" y="665.074626866"/>
      <point x="705" y="430" type="qcurve" smooth="yes"/>
      <point x="705.0" y="295.671641791"/>
      <point x="813.746268657" y="131.0"/>
    </contour>
  </outline>
</glyph>
<glyph name="F" format="1">
  <advance width="1060.864"/>
  <unicode hex="0046"/>
  <outline>
    <contour>
      <point x="424" y="1475" type="line"/>
      <point x="1245" y="1475" type="line"/>
      <point x="1227" y="1401" type="line"/>
      <point x="496" y="1401" type="line"/>
      <point x="342" y="780" type="line"/>
      <point x="944" y="780" type="line"/>
      <point x="926" y="707" type="line"/>
      <point x="324" y="707" type="line"/>
      <point x="147" y="0" type="line"/>
      <point x="57" y="0" type="line"/>
    </contour>
  </outline>
</glyph>
<glyph name="G" format="1">
  <advance width="1236.992"/>
  <unicode hex="0047"/>
  <outline>
    <contour>
      <point x="823" y="1499" type="qcurve" smooth="yes"/>
      <point x="986.432835821" y="1499.0"/>
      <point x="1157.40298507" y="1308.04477612"/>
      <point x="1188" y="1167" type="qcurve"/>
      <point x="1106" y="1137" type="line"/>
      <point x="1075.40298507" y="1260.88059701"/>
      <point x="952.820895522" y="1425.0"/>
      <point x="817" y="1425" type="qcurve" smooth="yes"/>
      <point x="621.47761194" y="1425.0"/>
      <point x="332.686567164" y="1041.56716418"/>
      <point x="270" y="805" type="qcurve" smooth="yes"/>
      <point x="247.611940299" y="720.671641791"/>
      <point x="223.0" y="556.850746269"/>
      <point x="223" y="477" type="qcurve" smooth="yes"/>
      <point x="223" y="473" type="line" smooth="yes"/>
      <point x="223.0" y="299.119402985"/>
      <point x="369.492537313" y="49.0"/>
      <point x="518" y="49" type="qcurve" smooth="yes"/>
      <point x="668.0" y="49.0"/>
      <point x="910.71641791" y="340.805970149"/>
      <point x="1004" y="602" type="qcurve"/>
      <point x="641" y="602" type="line"/>
      <point x="659" y="676" type="line"/>
      <point x="1139" y="676" type="line"/>
      <point x="969" y="0" type="line"/>
      <point x="899" y="0" type="line"/>
      <point x="1018" y="471" type="line"/>
      <point x="1008" y="471" type="line"/>
      <point x="906.507462687" y="241.895522388"/>
      <point x="684.388059701" y="-25.0"/>
      <point x="512" y="-25" type="qcurve" smooth="yes"/>
      <point x="334.388059701" y="-25.0"/>
      <point x="133.0" y="246.373134328"/>
      <point x="133" y="471" type="qcurve" smooth="yes"/>
      <point x="133" y="475" type="line" smooth="yes"/>
      <point x="133.0" y="545.149253731"/>
      <point x="149.343283582" y="675.671641791"/>
      <point x="168" y="760" type="qcurve" smooth="yes"/>
      <point x="230.686567164" y="1041.34328358"/>
      <point x="577.47761194" y="1499.0"/>
    </contour>
  </outline>
</glyph>
<glyph name="M" format="1">
  <advance width="1654.784"/>
  <unicode hex="004D"/>
  <outline>
    <contour>
      <point x="1520" y="1475" type="line"/>
      <point x="1702" y="1475" type="line"/>
      <point x="1335" y="0" type="line"/>
      <point x="1245" y="0" type="line"/>
      <point x="1595" y="1409" type="line"/>
      <point x="1573" y="1409" type="line"/>
      <point x="752" y="0" type="line"/>
      <point x="633" y="0" type="line"/>
      <point x="516" y="1409" type="line"/>
      <point x="494" y="1409" type="line"/>
      <point x="143" y="0" type="line"/>
      <point x="57" y="0" type="line"/>
      <point x="424" y="1475" type="line"/>
      <point x="598" y="1475" type="line"/>
      <point x="705" y="90" type="line"/>
      <point x="721" y="90" type="line"/>
    </contour>
  </outline>
</glyph>
<glyph name="O" format="1">
  <advance width="1236.992"/>
  <unicode hex="004F"/>
  <outline>
    <contour>
      <point x="1210" y="1004" type="qcurve" smooth="yes"/>
      <point x="1210" y="999" type="line" smooth="yes"/>
      <point x="1210.0" y="921.388059701"/>
      <point x="1189.65671642" y="774.835820896"/>
      <point x="1171" y="692" type="qcurve" smooth="yes"/>
      <point x="1110.55223881" y="420.358208955"/>
      <point x="766.805970149" y="-25.0"/>
      <point x="528" y="-25" type="qcurve" smooth="yes"/>
      <point x="338.447761194" y="-25.0"/>
      <point x="133.0" y="246.373134328"/>
      <point x="133" y="471" type="qcurve" smooth="yes"/>
      <point x="133" y="475" type="line" smooth="yes"/>
      <point x="133.0" y="553.358208955"/>
      <point x="153.343283582" y="699.910447761"/>
      <point x="172" y="782" type="qcurve" smooth="yes"/>
      <point x="233.194029851" y="1054.3880597"/>
      <point x="576.940298507" y="1499.0"/>
      <point x="815" y="1499" type="qcurve" smooth="yes"/>
      <point x="1004.55223881" y="1499.0"/>
      <point x="1210.0" y="1228.62686567"/>
    </contour>
    <contour>
      <point x="1071" y="653" type="qcurve" smooth="yes"/>
      <point x="1094.13432836" y="737.328358209"/>
      <point x="1120.0" y="916.402985075"/>
      <point x="1120" y="997" type="qcurve" smooth="yes"/>
      <point x="1120" y="1001" type="line" smooth="yes"/>
      <point x="1120.0" y="1175.62686567"/>
      <point x="970.940298507" y="1425.0"/>
      <point x="809" y="1425" type="qcurve" smooth="yes"/>
      <point x="619.447761194" y="1425.0"/>
      <point x="333.194029851" y="1050.10447761"/>
      <point x="272" y="821" type="qcurve" smooth="yes"/>
      <point x="249.611940299" y="737.417910448"/>
      <point x="223.0" y="558.343283582"/>
      <point x="223" y="477" type="qcurve" smooth="yes"/>
      <point x="223" y="473" type="line" smooth="yes"/>
      <point x="223.0" y="299.119402985"/>
      <point x="372.313432836" y="49.0"/>
      <point x="535" y="49" type="qcurve" smooth="yes"/>
      <point x="723.805970149" y="49.0"/>
      <point x="1009.80597015" y="423.895522388"/>
    </contour>
  </outline>
</glyph>
<glyph name="Q" format="1">
  <advance width="1236.992"/>
  <unicode hex="0051"/>
  <outline>
    <contour>
      <point x="1210" y="1004" type="qcurve" smooth="yes"/>
      <point x="1210" y="999" type="line" smooth="yes"/>
      <point x="1210.0" y="921.388059701"/>
      <point x="1189.65671642" y="774.835820896"/>
      <point x="1171" y="692" type="qcurve" smooth="yes"/>
      <point x="1132.94029851" y="521.104477612"/>
      <point x="963.910447761" y="205.492537313"/>
      <point x="846" y="104" type="qcurve"/>
      <point x="907" y="-25" type="line" smooth="yes"/>
      <point x="934.611940299" y="-80.9701492537"/>
      <point x="1001.7761194" y="-129.0"/>
      <point x="1057" y="-129" type="qcurve" smooth="yes"/>
      <point x="1077.89552239" y="-129.0"/>
      <point x="1121.35820896" y="-120.462686567"/>
      <point x="1143" y="-113" type="qcurve"/>
      <point x="1124" y="-186" type="line"/>
      <point x="1101.6119403" y="-194.208955224"/>
      <point x="1049.6119403" y="-203.0"/>
      <point x="1022" y="-203" type="qcurve" smooth="yes"/>
      <point x="957.820895522" y="-203.0"/>
      <point x="862.582089552" y="-145.611940299"/>
      <point x="829" y="-68" type="qcurve" smooth="yes"/>
      <point x="778" y="53" type="line"/>
      <point x="719.791044776" y="16.4328358209"/>
      <point x="595.164179104" y="-25.0"/>
      <point x="528" y="-25" type="qcurve" smooth="yes"/>
      <point x="338.447761194" y="-25.0"/>
      <point x="133.0" y="246.373134328"/>
      <point x="133" y="471" type="qcurve" smooth="yes"/>
      <point x="133" y="475" type="line" smooth="yes"/>
      <point x="133.0" y="553.358208955"/>
      <point x="153.343283582" y="699.910447761"/>
      <point x="172" y="782" type="qcurve" smooth="yes"/>
      <point x="233.194029851" y="1054.3880597"/>
      <point x="576.940298507" y="1499.0"/>
      <point x="815" y="1499" type="qcurve" smooth="yes"/>
      <point x="1004.55223881" y="1499.0"/>
      <point x="1210.0" y="1228.62686567"/>
    </contour>
    <contour>
      <point x="1071" y="653" type="qcurve" smooth="yes"/>
      <point x="1094.13432836" y="737.328358209"/>
      <point x="1120.0" y="916.402985075"/>
      <point x="1120" y="997" type="qcurve" smooth="yes"/>
      <point x="1120" y="1001" type="line" smooth="yes"/>
      <point x="1120.0" y="1175.62686567"/>
      <point x="970.940298507" y="1425.0"/>
      <point x="809" y="1425" type="qcurve" smooth="yes"/>
      <point x="619.447761194" y="1425.0"/>
      <point x="333.194029851" y="1050.10447761"/>
      <point x="272" y="821" type="qcurve" smooth="yes"/>
      <point x="249.611940299" y="737.417910448"/>
      <point x="223.0" y="558.343283582"/>
      <point x="223" y="477" type="qcurve" smooth="yes"/>
      <point x="223" y="473" type="line" smooth="yes"/>
      <point x="223.0" y="299.119402985"/>
      <point x="372.313432836" y="49.0"/>
      <point x="535" y="49" type="qcurve" smooth="yes"/>
      <point x="593.955223881" y="49.0"/>
      <point x="702.23880597" y="86.9104477612"/>
      <point x="750" y="119" type="qcurve"/>
      <point x="637" y="385" type="line"/>
      <point x="696" y="418" type="line"/>
      <point x="813" y="172" type="line"/>
      <point x="903.298507463" y="257.820895522"/>
      <point x="1034.43283582" y="514.194029851"/>
    </contour>
  </outline>
</glyph>
<glyph name="R" format="1">
  <advance width="1202.176"/>
  <unicode hex="0052"/>
  <outline>
    <contour>
      <point x="809" y="1475" type="line" smooth="yes"/>
      <point x="1004.52238806" y="1475.0"/>
      <point x="1219.0" y="1311.92537313"/>
      <point x="1219" y="1147" type="qcurve" smooth="yes"/>
      <point x="1219.0" y="938.791044776"/>
      <point x="927.850746269" y="691.432835821"/>
      <point x="698" y="678" type="qcurve"/>
      <point x="999" y="0" type="line"/>
      <point x="897" y="0" type="line"/>
      <point x="604" y="676" type="line"/>
      <point x="313" y="676" type="line"/>
      <point x="147" y="0" type="line"/>
      <point x="57" y="0" type="line"/>
      <point x="424" y="1475" type="line"/>
    </contour>
    <contour>
      <point x="631" y="750" type="line" smooth="yes"/>
      <point x="855.626865672" y="750.0"/>
      <point x="1126.0" y="948.970149254"/>
      <point x="1126" y="1143" type="qcurve" smooth="yes"/>
      <point x="1126.0" y="1268.37313433"/>
      <point x="966.910447761" y="1401.0"/>
      <point x="799" y="1401" type="qcurve" smooth="yes"/>
      <point x="496" y="1401" type="line"/>
      <point x="332" y="750" type="line"/>
    </contour>
  </outline>
</glyph>
<glyph name="underscore" format="1">
  <advance width="1024.0"/>
  <unicode hex="005F"/>
  <outline>
    <contour>
      <point x="-162" y="-98" type="line"/>
      <point x="874" y="-98" type="line"/>
      <point x="858" y="-166" type="line"/>
      <point x="-178" y="-166" type="line"/>
    </contour>
  </outline>
</glyph>
<glyph name="c" format="1">
  <advance width="872.448"/>
  <unicode hex="0063"/>
  <outline>
    <contour>
      <point x="590" y="1069" type="qcurve" smooth="yes"/>
      <point x="709.402985075" y="1069.0"/>
      <point x="838.865671642" y="921.208955224"/>
      <point x="862" y="813" type="qcurve"/>
      <point x="793" y="788" type="line"/>
      <point x="771.358208955" y="886.507462687"/>
      <point x="676.268656716" y="1004.0"/>
      <point x="580" y="1004" type="qcurve" smooth="yes"/>
      <point x="437.462686567" y="1004.0"/>
      <point x="236.268656716" y="755.402985075"/>
      <point x="190" y="586" type="qcurve" smooth="yes"/>
      <point x="173.582089552" y="524.805970149"/>
      <point x="158.0" y="407.194029851"/>
      <point x="158" y="346" type="qcurve" smooth="yes"/>
      <point x="158" y="342" type="line" smooth="yes"/>
      <point x="158.0" y="190.507462687"/>
      <point x="288.76119403" y="45.0"/>
      <point x="391" y="45" type="qcurve" smooth="yes"/>
      <point x="473.835820896" y="45.0"/>
      <point x="611.850746269" y="146.432835821"/>
      <point x="682" y="233" type="qcurve"/>
      <point x="737" y="193" type="line"/>
      <point x="659.388059701" y="93.0"/>
      <point x="485.23880597" y="-20.0"/>
      <point x="383" y="-20" type="qcurve" smooth="yes"/>
      <point x="256.134328358" y="-20.0"/>
      <point x="76.0" y="163.373134328"/>
      <point x="76" y="338" type="qcurve" smooth="yes"/>
      <point x="76" y="342" type="line" smooth="yes"/>
      <point x="76.0" y="397.223880597"/>
      <point x="90.5671641791" y="515.029850746"/>
      <point x="104" y="571" type="qcurve" smooth="yes"/>
      <point x="153.253731343" y="763.537313433"/>
      <point x="401.940298507" y="1069.0"/>
    </contour>
  </outline>
</glyph>
<glyph name="e" format="1">
  <advance width="905.216"/>
  <unicode hex="0065"/>
  <outline>
    <contour>
      <point x="582" y="1069" type="qcurve" smooth="yes"/>
      <point x="732.746268657" y="1069.0"/>
      <point x="846.0" y="849.388059701"/>
      <point x="846" y="727" type="qcurve" smooth="yes"/>
      <point x="846.0" y="678.492537313"/>
      <point x="829.686567164" y="559.52238806"/>
      <point x="817" y="514" type="qcurve"/>
      <point x="172" y="514" type="line"/>
      <point x="164.537313433" y="474.447761194"/>
      <point x="158.0" y="390.776119403"/>
      <point x="158" y="346" type="qcurve" smooth="yes"/>
      <point x="158" y="342" type="line" smooth="yes"/>
      <point x="158.0" y="204.686567164"/>
      <point x="273.268656716" y="45.0"/>
      <point x="377" y="45" type="qcurve" smooth="yes"/>
      <point x="460.582089552" y="45.0"/>
      <point x="593.611940299" y="119.313432836"/>
      <point x="666" y="182" type="qcurve"/>
      <point x="709" y="131" type="line"/>
      <point x="635.119402985" y="62.3432835821"/>
      <point x="475.23880597" y="-20.0"/>
      <point x="373" y="-20" type="qcurve" smooth="yes"/>
      <point x="241.656716418" y="-20.0"/>
      <point x="76.0" y="173.074626866"/>
      <point x="76" y="338" type="qcurve" smooth="yes"/>
      <point x="76" y="342" type="line" smooth="yes"/>
      <point x="76.0" y="401.701492537"/>
      <point x="90.5671641791" y="518.52238806"/>
      <point x="104" y="573" type="qcurve" smooth="yes"/>
      <point x="157.731343284" y="785.686567164"/>
      <point x="424.537313433" y="1069.0"/>
    </contour>
    <contour>
      <point x="750" y="580" type="line"/>
      <point x="757.462686567" y="619.552238806"/>
      <point x="764.0" y="686.432835821"/>
      <point x="764" y="723" type="qcurve" smooth="yes"/>
      <point x="764.0" y="834.194029851"/>
      <point x="686.208955224" y="1004.0"/>
      <point x="578" y="1004" type="qcurve" smooth="yes"/>
      <point x="454.119402985" y="1004.0"/>
      <point x="230.776119403" y="761.343283582"/>
      <point x="186" y="580" type="qcurve"/>
    </contour>
  </outline>
</glyph>
<glyph name="j" format="1">
  <advance width="434.176"/>
  <unicode hex="006A"/>
  <outline>
    <contour>
      <point x="307" y="1049" type="line"/>
      <point x="389" y="1049" type="line"/>
      <point x="78" y="-197" type="line" smooth="yes"/>
      <point x="50.3880597015" y="-306.701492537"/>
      <point x="-73.671641791" y="-389.0"/>
      <point x="-158" y="-389" type="qcurve" smooth="yes"/>
      <point x="-193.074626866" y="-389.0"/>
      <point x="-254.402985075" y="-372.179104478"/>
      <point x="-285" y="-358" type="qcurve"/>
      <point x="-266" y="-289" type="line"/>
      <point x="-239.880597015" y="-303.925373134"/>
      <point x="-184.089552239" y="-322.0"/>
      <point x="-152" y="-322" type="qcurve" smooth="yes"/>
      <point x="-87.8208955224" y="-322.0"/>
      <point x="-18.6567164179" y="-251.134328358"/>
      <point x="0" y="-178" type="qcurve" smooth="yes"/>
    </contour>
    <contour>
      <point x="397" y="1475" type="line"/>
      <point x="508" y="1475" type="line"/>
      <point x="469" y="1321" type="line"/>
      <point x="358" y="1321" type="line"/>
    </contour>
  </outline>
</glyph>
<glyph name="o" format="1">
  <advance width="966.656"/>
  <unicode hex="006F"/>
  <outline>
    <contour>
      <point x="891" y="711" type="qcurve" smooth="yes"/>
      <point x="891" y="707" type="line" smooth="yes"/>
      <point x="891.0" y="653.268656716"/>
      <point x="878.179104478" y="542.223880597"/>
      <point x="864" y="487" type="qcurve" smooth="yes"/>
      <point x="816.985074627" y="291.47761194"/>
      <point x="562.582089552" y="-20.0"/>
      <point x="379" y="-20" type="qcurve" smooth="yes"/>
      <point x="249.149253731" y="-20.0"/>
      <point x="76.0" y="163.373134328"/>
      <point x="76" y="338" type="qcurve" smooth="yes"/>
      <point x="76" y="342" type="line" smooth="yes"/>
      <point x="76.0" y="395.731343284"/>
      <point x="88.5671641791" y="505.776119403"/>
      <point x="102" y="561" type="qcurve" smooth="yes"/>
      <point x="149.76119403" y="756.52238806"/>
      <point x="404.417910448" y="1069.0"/>
      <point x="588" y="1069" type="qcurve" smooth="yes"/>
      <point x="717.850746269" y="1069.0"/>
      <point x="891.0" y="884.880597015"/>
    </contour>
    <contour>
      <point x="776" y="465" type="qcurve" smooth="yes"/>
      <point x="791.671641791" y="524.701492537"/>
      <point x="807.0" y="640.537313433"/>
      <point x="807" y="698" type="qcurve" smooth="yes"/>
      <point x="807" y="702" type="line" smooth="yes"/>
      <point x="807.0" y="853.492537313"/>
      <point x="684.746268657" y="1004.0"/>
      <point x="584" y="1004" type="qcurve" smooth="yes"/>
      <point x="436.985074627" y="1004.0"/>
      <point x="231.791044776" y="748.925373134"/>
      <point x="190" y="584" type="qcurve" smooth="yes"/>
      <point x="175.074626866" y="524.298507463"/>
      <point x="160.0" y="408.208955224"/>
      <point x="160" y="350" type="qcurve" smooth="yes"/>
      <point x="160" y="346" type="line" smooth="yes"/>
      <point x="160.0" y="194.507462687"/>
      <point x="282.253731343" y="45.0"/>
      <point x="383" y="45" type="qcurve" smooth="yes"/>
      <point x="530.014925373" y="45.0"/>
      <point x="734.955223881" y="300.074626866"/>
    </contour>
  </outline>
</glyph>
<glyph name="q" format="1">
  <advance width="1019.904"/>
  <unicode hex="0071"/>
  <outline>
    <contour>
      <point x="918" y="1067" type="line"/>
      <point x="989" y="1022" type="line"/>
      <point x="639" y="-385" type="line"/>
      <point x="557" y="-385" type="line"/>
      <point x="725" y="291" type="line"/>
      <point x="713" y="291" type="line"/>
      <point x="583.149253731" y="114.880597015"/>
      <point x="400.820895522" y="-20.0"/>
      <point x="315" y="-20" type="qcurve" smooth="yes"/>
      <point x="186.641791045" y="-20.0"/>
      <point x="74.0" y="180.194029851"/>
      <point x="74" y="319" type="qcurve" smooth="yes"/>
      <point x="74" y="324" type="line" smooth="yes"/>
      <point x="74.0" y="641.910447761"/>
      <point x="390.104477612" y="1069.0"/>
      <point x="561" y="1069" type="qcurve" smooth="yes"/>
      <point x="664.731343284" y="1069.0"/>
      <point x="783.791044776" y="937.835820896"/>
      <point x="842" y="805" type="qcurve"/>
      <point x="854" y="805" type="line"/>
    </contour>
    <contour>
      <point x="342" y="45" type="qcurve" smooth="yes"/>
      <point x="482.298507463" y="45.0"/>
      <point x="813.0" y="508.164179104"/>
      <point x="813" y="641" type="qcurve" smooth="yes"/>
      <point x="813.0" y="772.343283582"/>
      <point x="666.731343284" y="1004.0"/>
      <point x="563" y="1004" type="qcurve" smooth="yes"/>
      <point x="418.223880597" y="1004.0"/>
      <point x="158.0" y="599.641791045"/>
      <point x="158" y="328" type="qcurve" smooth="yes"/>
      <point x="158.0" y="213.074626866"/>
      <point x="233.791044776" y="45.0"/>
    </contour>
  </outline>
</glyph>
<glyph name="v" format="1">
  <advance width="892.928"/>
  <unicode hex="0076"/>
  <outline>
    <contour>
      <point x="877" y="1049" type="line"/>
      <point x="963" y="1049" type="line"/>
      <point x="354" y="-12" type="line"/>
      <point x="272" y="-12" type="line"/>
      <point x="193" y="1049" type="line"/>
      <point x="274" y="1049" type="line"/>
      <point x="332" y="76" type="line"/>
    </contour>
  </outline>
</glyph>
<glyph name="braceright" format="1">
  <advance width="745.472"/>
  <unicode hex="007D"/>
  <outline>
    <contour>
      <point x="508" y="838" type="qcurve" smooth="yes"/>
      <point x="508.0" y="770.835820896"/>
      <point x="620.313432836" y="690.0"/>
      <point x="733" y="690" type="qcurve"/>
      <point x="717" y="621" type="line"/>
      <point x="602.074626866" y="621.0"/>
      <point x="424.611940299" y="524.208955224"/>
      <point x="397" y="416" type="qcurve" smooth="yes"/>
      <point x="380.582089552" y="345.850746269"/>
      <point x="370.149253731" y="138.343283582"/>
      <point x="350" y="57" type="qcurve" smooth="yes"/>
      <point x="322.388059701" y="-52.7014925373"/>
      <point x="173.328358209" y="-164.0"/>
      <point x="39" y="-164" type="qcurve" smooth="yes"/>
      <point x="-98" y="-164" type="line"/>
      <point x="-82" y="-98" type="line"/>
      <point x="49" y="-98" type="line" smooth="yes"/>
      <point x="139.298507463" y="-98.0"/>
      <point x="246.089552239" y="-18.6417910448"/>
      <point x="264" y="53" type="qcurve" smooth="yes"/>
      <point x="285.641791045" y="135.835820896"/>
      <point x="287.597014925" y="314.402985075"/>
      <point x="307" y="395" type="qcurve" smooth="yes"/>
      <point x="336.104477612" y="512.910447761"/>
      <point x="474.059701493" y="615.417910448"/>
      <point x="586" y="649" type="qcurve"/>
      <point x="590" y="666" type="line"/>
      <point x="508.656716418" y="691.373134328"/>
      <point x="430.0" y="770.119402985"/>
      <point x="430" y="844" type="qcurve" smooth="yes"/>
      <point x="430.0" y="949.223880597"/>
      <point x="569.0" y="1202.23880597"/>
      <point x="569" y="1300" type="qcurve" smooth="yes"/>
      <point x="569.0" y="1350.74626866"/>
      <point x="496.149253731" y="1409.0"/>
      <point x="426" y="1409" type="qcurve" smooth="yes"/>
      <point x="295" y="1409" type="line"/>
      <point x="311" y="1475" type="line"/>
      <point x="438" y="1475" type="line" smooth="yes"/>
      <point x="537.253731343" y="1475.0"/>
      <point x="649.0" y="1393.56716418"/>
      <point x="649" y="1307" type="qcurve" smooth="yes"/>
      <point x="649.0" y="1186.10447761"/>
      <point x="508.0" y="937.253731343"/>
    </contour>
  </outline>
</glyph>
<glyph name="sterling" format="1">
  <advance width="1146.88"/>
  <unicode hex="00A3"/>
  <outline>
    <contour>
      <point x="815" y="1497" type="qcurve" smooth="yes"/>
      <point x="972.462686567" y="1497.0"/>
      <point x="1159.52238806" y="1363.73134328"/>
      <point x="1214" y="1260" type="qcurve"/>
      <point x="1143" y="1217" type="line"/>
      <point x="1083.29850746" y="1316.25373134"/>
      <point x="936.343283582" y="1425.0"/>
      <point x="805" y="1425" type="qcurve" smooth="yes"/>
      <point x="637.089552239" y="1425.0"/>
      <point x="465.0" y="1192.80597015"/>
      <point x="465" y="1004" type="qcurve" smooth="yes"/>
      <point x="465" y="768" type="line"/>
      <point x="860" y="768" type="line"/>
      <point x="842" y="696" type="line"/>
      <point x="465" y="696" type="line"/>
      <point x="465" y="643" type="line" smooth="yes"/>
      <point x="465.0" y="508.671641791"/>
      <point x="409.731343284" y="296.850746269"/>
      <point x="356" y="217" type="qcurve"/>
      <point x="431.373134328" y="140.880597015"/>
      <point x="579.164179104" y="59.0"/>
      <point x="662" y="59" type="qcurve" smooth="yes"/>
      <point x="754.537313433" y="59.0"/>
      <point x="891.313432836" y="181.492537313"/>
      <point x="954" y="330" type="qcurve"/>
      <point x="1026" y="301" type="line"/>
      <point x="957.343283582" y="130.104477612"/>
      <point x="773.388059701" y="-12.0"/>
      <point x="651" y="-12" type="qcurve" smooth="yes"/>
      <point x="545.776119403" y="-12.0"/>
      <point x="384.850746269" y="78.6268656716"/>
      <point x="305" y="154" type="qcurve"/>
      <point x="246.791044776" y="92.8059701493"/>
      <point x="87.7611940299" y="10.3880597015"/>
      <point x="-10" y="-12" type="qcurve"/>
      <point x="10" y="68" type="line"/>
      <point x="181.641791045" y="116.507462687"/>
      <point x="379.0" y="386.671641791"/>
      <point x="379" y="621" type="qcurve" smooth="yes"/>
      <point x="379" y="696" type="line"/>
      <point x="125" y="696" type="line"/>
      <point x="143" y="768" type="line"/>
      <point x="379" y="768" type="line"/>
      <point x="379" y="983" type="line" smooth="yes"/>
      <point x="379.0" y="1212.10447761"/>
      <point x="600.820895522" y="1497.0"/>
    </contour>
  </outline>
</glyph>
<glyph name="section" format="1">
  <advance width="1163.264"/>
  <unicode hex="00A7"/>
  <outline>
    <contour>
      <point x="752" y="1499" type="qcurve" smooth="yes"/>
      <point x="875.880597015" y="1499.0"/>
      <point x="1079.41791045" y="1426.71641791"/>
      <point x="1163" y="1370" type="qcurve"/>
      <point x="1110" y="1309" type="line"/>
      <point x="1039.85074627" y="1363.47761194"/>
      <point x="847.985074627" y="1432.0"/>
      <point x="745" y="1432" type="qcurve" smooth="yes"/>
      <point x="620.373134328" y="1432.0"/>
      <point x="485.0" y="1337.8358209"/>
      <point x="485" y="1255" type="qcurve" smooth="yes"/>
      <point x="485.0" y="1183.35820896"/>
      <point x="625.865671642" y="1073.1641791"/>
      <point x="799" y="1006" type="qcurve" smooth="yes"/>
      <point x="969.895522388" y="938.089552239"/>
      <point x="1126.0" y="795.059701493"/>
      <point x="1126" y="707" type="qcurve" smooth="yes"/>
      <point x="1126.0" y="590.582089552"/>
      <point x="896.776119403" y="428.567164179"/>
      <point x="702" y="442" type="qcurve"/>
      <point x="698" y="430" type="line"/>
      <point x="782.328358209" y="385.970149254"/>
      <point x="868.0" y="288.641791045"/>
      <point x="868" y="217" type="qcurve" smooth="yes"/>
      <point x="868.0" y="107.298507463"/>
      <point x="666.507462687" y="-25.0"/>
      <point x="518" y="-25" type="qcurve" smooth="yes"/>
      <point x="394.119402985" y="-25.0"/>
      <point x="190.328358209" y="48.0298507463"/>
      <point x="106" y="104" type="qcurve"/>
      <point x="160" y="166" type="line"/>
      <point x="230.149253731" y="110.776119403"/>
      <point x="421.76119403" y="43.0"/>
      <point x="524" y="43" type="qcurve" smooth="yes"/>
      <point x="649.373134328" y="43.0"/>
      <point x="784.0" y="136.910447761"/>
      <point x="784" y="219" type="qcurve" smooth="yes"/>
      <point x="784.0" y="290.641791045"/>
      <point x="643.388059701" y="401.835820896"/>
      <point x="471" y="469" type="qcurve" smooth="yes"/>
      <point x="300.104477612" y="536.164179104"/>
      <point x="143.0" y="679.194029851"/>
      <point x="143" y="768" type="qcurve" smooth="yes"/>
      <point x="143.0" y="884.417910448"/>
      <point x="372.970149254" y="1046.17910448"/>
      <point x="567" y="1032" type="qcurve"/>
      <point x="571" y="1044" type="line"/>
      <point x="487.417910448" y="1088.7761194"/>
      <point x="401.0" y="1185.35820896"/>
      <point x="401" y="1257" type="qcurve" smooth="yes"/>
      <point x="401.0" y="1367.44776119"/>
      <point x="603.492537313" y="1499.0"/>
    </contour>
    <contour>
      <point x="741" y="492" type="qcurve" smooth="yes"/>
      <point x="869.358208955" y="492.0"/>
      <point x="1038.0" y="608.447761194"/>
      <point x="1038" y="698" type="qcurve" smooth="yes"/>
      <point x="1038.0" y="754.71641791"/>
      <point x="942.791044776" y="868.298507463"/>
      <point x="801" y="928" type="qcurve" smooth="yes"/>
      <point x="745.776119403" y="950.388059701"/>
      <point x="597.402985075" y="983.0"/>
      <point x="528" y="983" type="qcurve" smooth="yes"/>
      <point x="399.641791045" y="983.0"/>
      <point x="231.0" y="866.298507463"/>
      <point x="231" y="776" type="qcurve" smooth="yes"/>
      <point x="231.0" y="719.28358209"/>
      <point x="327.208955224" y="606.701492537"/>
      <point x="469" y="547" type="qcurve" smooth="yes"/>
      <point x="524.223880597" y="523.865671642"/>
      <point x="672.343283582" y="492.0"/>
    </contour>
  </outline>
</glyph>
<glyph name="copyright" format="1">
  <advance width="1720.32"/>
  <unicode hex="00A9"/>
  <outline>
    <contour>
      <point x="1104" y="610" type="qcurve"/>
      <point x="1178" y="586" type="line"/>
      <point x="1148.89552239" y="469.582089552"/>
      <point x="1018.94029851" y="328.0"/>
      <point x="907" y="328" type="qcurve" smooth="yes"/>
      <point x="771.179104478" y="328.0"/>
      <point x="614.0" y="556.194029851"/>
      <point x="614" y="745" type="qcurve" smooth="yes"/>
      <point x="614" y="748" type="line" smooth="yes"/>
      <point x="614.0" y="936.805970149"/>
      <point x="770.194029851" y="1165.0"/>
      <point x="909" y="1165" type="qcurve" smooth="yes"/>
      <point x="1011.98507463" y="1165.0"/>
      <point x="1143.40298507" y="1044.17910448"/>
      <point x="1174" y="930" type="qcurve"/>
      <point x="1098" y="905" type="line"/>
      <point x="1070.3880597" y="999.776119403"/>
      <point x="982.880597015" y="1096.0"/>
      <point x="909" y="1096" type="qcurve" smooth="yes"/>
      <point x="800.791044776" y="1096.0"/>
      <point x="696.0" y="897.76119403"/>
      <point x="696" y="750" type="qcurve" smooth="yes"/>
      <point x="696" y="748" type="line" smooth="yes"/>
      <point x="696.0" y="599.492537313"/>
      <point x="800.791044776" y="399.0"/>
      <point x="909" y="399" type="qcurve" smooth="yes"/>
      <point x="987.358208955" y="399.0"/>
      <point x="1079.37313433" y="510.746268657"/>
    </contour>
    <contour>
      <point x="913" y="1499" type="qcurve" smooth="yes"/>
      <point x="1233.89552239" y="1499.0"/>
      <point x="1675.0" y="1057.89552239"/>
      <point x="1675" y="737" type="qcurve" smooth="yes"/>
      <point x="1675.0" y="416.104477612"/>
      <point x="1233.89552239" y="-25.0"/>
      <point x="913" y="-25" type="qcurve" smooth="yes"/>
      <point x="592.104477612" y="-25.0"/>
      <point x="152.0" y="416.104477612"/>
      <point x="152" y="737" type="qcurve" smooth="yes"/>
      <point x="152.0" y="1057.89552239"/>
      <point x="592.104477612" y="1499.0"/>
    </contour>
    <contour>
      <point x="913" y="37" type="qcurve" smooth="yes"/>
      <point x="1208.52238806" y="37.0"/>
      <point x="1606.0" y="442.223880597"/>
      <point x="1606" y="737" type="qcurve" smooth="yes"/>
      <point x="1606.0" y="1032.52238806"/>
      <point x="1208.52238806" y="1438.0"/>
      <point x="913" y="1438" type="qcurve" smooth="yes"/>
      <point x="618.223880597" y="1438.0"/>
      <point x="221.0" y="1032.52238806"/>
      <point x="221" y="737" type="qcurve" smooth="yes"/>
      <point x="221.0" y="442.223880597"/>
      <point x="618.223880597" y="37.0"/>
    </contour>
  </outline>
</glyph>
<glyph name="ordfeminine" format="1">
  <advance width="757.76"/>
  <unicode hex="00AA"/>
  <outline>
    <contour>
      <point x="578" y="1485" type="qcurve" smooth="yes"/>
      <point x="678.746268657" y="1485.0"/>
      <point x="778.0" y="1411.67164179"/>
      <point x="778" y="1346" type="qcurve" smooth="yes"/>
      <point x="778.0" y="1327.34328358"/>
      <point x="769.970149254" y="1279.62686567"/>
      <point x="764" y="1255" type="qcurve" smooth="yes"/>
      <point x="680" y="924" type="line" smooth="yes"/>
      <point x="678.507462687" y="914.298507463"/>
      <point x="676.0" y="891.955223881"/>
      <point x="676" y="883" type="qcurve" smooth="yes"/>
      <point x="676.0" y="861.358208955"/>
      <point x="705.925373134" y="829.47761194"/>
      <point x="741" y="825" type="qcurve"/>
      <point x="729" y="772" type="line"/>
      <point x="666.313432836" y="776.47761194"/>
      <point x="600.507462687" y="842.253731343"/>
      <point x="602" y="893" type="qcurve"/>
      <point x="533.343283582" y="824.343283582"/>
      <point x="414.179104478" y="766.0"/>
      <point x="350" y="766" type="qcurve" smooth="yes"/>
      <point x="281.343283582" y="766.0"/>
      <point x="186.0" y="848.626865672"/>
      <point x="186" y="924" type="qcurve" smooth="yes"/>
      <point x="186.0" y="1045.64179104"/>
      <point x="422.268656716" y="1197.49253731"/>
      <point x="676" y="1196" type="qcurve"/>
      <point x="692" y="1260" type="line" smooth="yes"/>
      <point x="697.970149254" y="1282.3880597"/>
      <point x="705.0" y="1316.07462687"/>
      <point x="705" y="1331" type="qcurve" smooth="yes"/>
      <point x="705.0" y="1380.25373134"/>
      <point x="634.164179104" y="1425.0"/>
      <point x="567" y="1425" type="qcurve" smooth="yes"/>
      <point x="514.014925373" y="1425.0"/>
      <point x="408.71641791" y="1397.6119403"/>
      <point x="352" y="1370" type="qcurve"/>
      <point x="334" y="1430" type="line"/>
      <point x="393.701492537" y="1455.37313433"/>
      <point x="510.089552239" y="1485.0"/>
    </contour>
    <contour>
      <point x="618" y="969" type="qcurve"/>
      <point x="664" y="1147" type="line"/>
      <point x="429.671641791" y="1148.49253731"/>
      <point x="256.0" y="1017.31343284"/>
      <point x="256" y="930" type="qcurve" smooth="yes"/>
      <point x="256.0" y="879.253731343"/>
      <point x="320.76119403" y="823.0"/>
      <point x="373" y="823" type="qcurve" smooth="yes"/>
      <point x="420.014925373" y="823.0"/>
      <point x="547.850746269" y="893.626865672"/>
    </contour>
    <contour>
      <point x="127" y="598" type="line"/>
      <point x="664" y="598" type="line"/>
      <point x="647" y="535" type="line"/>
      <point x="111" y="535" type="line"/>
    </contour>
  </outline>
</glyph>
<glyph name="uni00AE" format="1">
  <advance width="1720.32"/>
  <unicode hex="00AE"/>
  <outline>
    <contour>
      <point x="983" y="702" type="qcurve"/>
      <point x="1235" y="336" type="line"/>
      <point x="1137" y="336" type="line"/>
      <point x="889" y="698" type="line"/>
      <point x="760" y="698" type="line"/>
      <point x="760" y="336" type="line"/>
      <point x="676" y="336" type="line"/>
      <point x="676" y="1157" type="line"/>
      <point x="930" y="1157" type="line" smooth="yes"/>
      <point x="1055.37313433" y="1157.0"/>
      <point x="1202.0" y="1039.70149254"/>
      <point x="1202" y="930" type="qcurve" smooth="yes"/>
      <point x="1202.0" y="830.746268657"/>
      <point x="1082.25373134" y="716.179104478"/>
    </contour>
    <contour>
      <point x="913" y="1499" type="qcurve" smooth="yes"/>
      <point x="1233.89552239" y="1499.0"/>
      <point x="1675.0" y="1057.89552239"/>
      <point x="1675" y="737" type="qcurve" smooth="yes"/>
      <point x="1675.0" y="416.104477612"/>
      <point x="1233.89552239" y="-25.0"/>
      <point x="913" y="-25" type="qcurve" smooth="yes"/>
      <point x="592.104477612" y="-25.0"/>
      <point x="152.0" y="416.104477612"/>
      <point x="152" y="737" type="qcurve" smooth="yes"/>
      <point x="152.0" y="1057.89552239"/>
      <point x="592.104477612" y="1499.0"/>
    </contour>
    <contour>
      <point x="913" y="37" type="qcurve" smooth="yes"/>
      <point x="1208.52238806" y="37.0"/>
      <point x="1606.0" y="442.223880597"/>
      <point x="1606" y="737" type="qcurve" smooth="yes"/>
      <point x="1606.0" y="1032.52238806"/>
      <point x="1208.52238806" y="1438.0"/>
      <point x="913" y="1438" type="qcurve" smooth="yes"/>
      <point x="618.223880597" y="1438.0"/>
      <point x="221.0" y="1032.52238806"/>
      <point x="221" y="737" type="qcurve" smooth="yes"/>
      <point x="221.0" y="442.223880597"/>
      <point x="618.223880597" y="37.0"/>
    </contour>
    <contour>
      <point x="930" y="772" type="line" smooth="yes"/>
      <point x="1020.29850746" y="772.0"/>
      <point x="1118.0" y="846.656716418"/>
      <point x="1118" y="928" type="qcurve" smooth="yes"/>
      <point x="1118.0" y="1004.11940299"/>
      <point x="1020.7761194" y="1085.0"/>
      <point x="926" y="1085" type="qcurve" smooth="yes"/>
      <point x="760" y="1085" type="line"/>
      <point x="760" y="772" type="line"/>
    </contour>
  </outline>
</glyph>
<glyph name="paragraph" format="1">
  <advance width="1064.96"/>
  <unicode hex="00B6"/>
  <outline>
    <contour>
      <point x="717" y="1475" type="qcurve" smooth="yes"/>
      <point x="1116" y="1475" type="line"/>
      <point x="750" y="0" type="line"/>
      <point x="666" y="0" type="line"/>
      <point x="1014" y="1401" type="line"/>
      <point x="801" y="1401" type="line"/>
      <point x="453" y="0" type="line"/>
      <point x="369" y="0" type="line"/>
      <point x="559" y="776" type="line"/>
      <point x="407.507462687" y="793.164179104"/>
      <point x="219.0" y="942.223880597"/>
      <point x="219" y="1087" type="qcurve" smooth="yes"/>
      <point x="219.0" y="1249.68656716"/>
      <point x="478.194029851" y="1475.0"/>
    </contour>
  </outline>
</glyph>
<glyph name="periodcentered" format="1">
  <advance width="348.16"/>
  <unicode hex="00B7"/>
  <outline>
    <contour>
      <point x="184" y="647" type="qcurve" smooth="yes"/>
      <point x="217.582089552" y="647.0"/>
      <point x="262.0" y="602.582089552"/>
      <point x="262" y="569" type="qcurve" smooth="yes"/>
      <point x="262.0" y="535.417910448"/>
      <point x="217.582089552" y="492.0"/>
      <point x="184" y="492" type="qcurve" smooth="yes"/>
      <point x="150.417910448" y="492.0"/>
      <point x="106.0" y="535.417910448"/>
      <point x="106" y="569" type="qcurve" smooth="yes"/>
      <point x="106.0" y="602.582089552"/>
      <point x="150.417910448" y="647.0"/>
    </contour>
  </outline>
</glyph>
<glyph name="questiondown" format="1">
  <advance width="870.4"/>
  <unicode hex="00BF"/>
  <outline>
    <contour>
      <point x="668" y="258" type="qcurve"/>
      <point x="729" y="217" type="line"/>
      <point x="649.895522388" y="102.074626866"/>
      <point x="449.164179104" y="-20.0"/>
      <point x="332" y="-20" type="qcurve" smooth="yes"/>
      <point x="190.955223881" y="-20.0"/>
      <point x="31.0" y="121.582089552"/>
      <point x="31" y="238" type="qcurve" smooth="yes"/>
      <point x="31.0" y="367.850746269"/>
      <point x="183.970149254" y="550.28358209"/>
      <point x="328" y="657" type="qcurve" smooth="yes"/>
      <point x="442.179104478" y="742.820895522"/>
      <point x="542.208955224" y="902.104477612"/>
      <point x="584" y="1073" type="qcurve"/>
      <point x="641" y="1073" type="line"/>
      <point x="601.447761194" y="870.014925373"/>
      <point x="488.358208955" y="691.28358209"/>
      <point x="360" y="598" type="qcurve" smooth="yes"/>
      <point x="256.268656716" y="523.373134328"/>
      <point x="121.0" y="351.701492537"/>
      <point x="121" y="242" type="qcurve" smooth="yes"/>
      <point x="121.0" y="145.731343284"/>
      <point x="248.71641791" y="53.0"/>
      <point x="342" y="53" type="qcurve" smooth="yes"/>
      <point x="441.253731343" y="53.0"/>
      <point x="594.119402985" y="154.268656716"/>
    </contour>
    <contour>
      <point x="682" y="1493" type="qcurve" smooth="yes"/>
      <point x="715.582089552" y="1493.0"/>
      <point x="760.0" y="1448.58208955"/>
      <point x="760" y="1415" type="qcurve" smooth="yes"/>
      <point x="760.0" y="1381.41791045"/>
      <point x="715.582089552" y="1337.0"/>
      <point x="682" y="1337" type="qcurve" smooth="yes"/>
      <point x="648.417910448" y="1337.0"/>
      <point x="604.0" y="1381.41791045"/>
      <point x="604" y="1415" type="qcurve" smooth="yes"/>
      <point x="604.0" y="1448.58208955"/>
      <point x="648.417910448" y="1493.0"/>
    </contour>
  </outline>
</glyph>
<glyph name="AE" format="1">
  <advance width="1849.344"/>
  <unicode hex="00C6"/>
  <outline>
    <contour>
      <point x="1069" y="1475" type="line"/>
      <point x="1974" y="1475" type="line"/>
      <point x="1956" y="1401" type="line"/>
      <point x="1251" y="1401" type="line"/>
      <point x="1104" y="811" type="line"/>
      <point x="1700" y="811" type="line"/>
      <point x="1683" y="737" type="line"/>
      <point x="1087" y="737" type="line"/>
      <point x="922" y="74" type="line"/>
      <point x="1651" y="74" type="line"/>
      <point x="1632" y="0" type="line"/>
      <point x="813" y="0" type="line"/>
      <point x="915" y="412" type="line"/>
      <point x="326" y="412" type="line"/>
      <point x="0" y="0" type="line"/>
      <point x="-98" y="0" type="line"/>
    </contour>
    <contour>
      <point x="934" y="485" type="line"/>
      <point x="1161" y="1397" type="line"/>
      <point x="1104" y="1397" type="line"/>
      <point x="383" y="485" type="line"/>
    </contour>
  </outline>
</glyph>
<glyph name="Thorn" format="1">
  <advance width="1146.88"/>
  <unicode hex="00DE"/>
  <outline>
    <contour>
      <point x="713" y="1171" type="line" smooth="yes"/>
      <point x="908.52238806" y="1171.0"/>
      <point x="1124.0" y="998.925373134"/>
      <point x="1124" y="834" type="qcurve" smooth="yes"/>
      <point x="1124.0" y="613.850746269"/>
      <point x="791.23880597" y="344.0"/>
      <point x="539" y="344" type="qcurve" smooth="yes"/>
      <point x="231" y="344" type="line"/>
      <point x="147" y="0" type="line"/>
      <point x="57" y="0" type="line"/>
      <point x="424" y="1475" type="line"/>
      <point x="514" y="1475" type="line"/>
      <point x="438" y="1171" type="line"/>
    </contour>
    <contour>
      <point x="528" y="418" type="line" smooth="yes"/>
      <point x="752.626865672" y="418.0"/>
      <point x="1032.0" y="634.970149254"/>
      <point x="1032" y="829" type="qcurve" smooth="yes"/>
      <point x="1032.0" y="954.373134328"/>
      <point x="870.656716418" y="1098.0"/>
      <point x="702" y="1098" type="qcurve" smooth="yes"/>
      <point x="420" y="1098" type="line"/>
      <point x="250" y="418" type="line"/>
    </contour>
  </outline>
</glyph>
<glyph name="germandbls" format="1">
  <advance width="1138.688"/>
  <unicode hex="00DF"/>
  <outline>
    <contour>
      <point x="768" y="1554" type="qcurve" smooth="yes"/>
      <point x="906.805970149" y="1554.0"/>
      <point x="1090.0" y="1407.37313433"/>
      <point x="1090" y="1282" type="qcurve" smooth="yes"/>
      <point x="1090.0" y="1104.3880597"/>
      <point x="852.343283582" y="895.014925373"/>
      <point x="721" y="848" type="qcurve"/>
      <point x="717" y="831" type="line"/>
      <point x="849.835820896" y="788.462686567"/>
      <point x="1024.0" y="568.268656716"/>
      <point x="1024" y="422" type="qcurve" smooth="yes"/>
      <point x="1024.0" y="223.492537313"/>
      <point x="765.910447761" y="-20.0"/>
      <point x="598" y="-20" type="qcurve" smooth="yes"/>
      <point x="500.23880597" y="-20.0"/>
      <point x="345.208955224" y="40.5074626866"/>
      <point x="287" y="92" type="qcurve"/>
      <point x="336" y="141" type="line"/>
      <point x="391.223880597" y="96.9701492537"/>
      <point x="515.671641791" y="45.0"/>
      <point x="600" y="45" type="qcurve" smooth="yes"/>
      <point x="740.298507463" y="45.0"/>
      <point x="940.0" y="247.850746269"/>
      <point x="940" y="418" type="qcurve" smooth="yes"/>
      <point x="940.0" y="569.492537313"/>
      <point x="737.985074627" y="790.880597015"/>
      <point x="535" y="817" type="qcurve"/>
      <point x="549" y="879" type="line"/>
      <point x="737.059701493" y="880.492537313"/>
      <point x="1006.0" y="1112.50746269"/>
      <point x="1006" y="1264" type="qcurve" smooth="yes"/>
      <point x="1006.0" y="1372.20895522"/>
      <point x="868.686567164" y="1489.0"/>
      <point x="756" y="1489" type="qcurve" smooth="yes"/>
      <point x="624.656716418" y="1489.0"/>
      <point x="436.791044776" y="1333.65671642"/>
      <point x="395" y="1165" type="qcurve" smooth="yes"/>
      <point x="10" y="-385" type="line"/>
      <point x="-72" y="-385" type="line"/>
      <point x="311" y="1157" type="line" smooth="yes"/>
      <point x="361.746268657" y="1358.49253731"/>
      <point x="590.388059701" y="1554.0"/>
    </contour>
  </outline>
</glyph>
<glyph name="ae" format="1">
  <advance width="1517.568"/>
  <unicode hex="00E6"/>
  <outline>
    <contour>
      <point x="1194" y="1069" type="qcurve" smooth="yes"/>
      <point x="1345.49253731" y="1069.0"/>
      <point x="1458.0" y="849.388059701"/>
      <point x="1458" y="727" type="qcurve" smooth="yes"/>
      <point x="1458.0" y="678.492537313"/>
      <point x="1441.94029851" y="559.52238806"/>
      <point x="1430" y="514" type="qcurve"/>
      <point x="784" y="514" type="line"/>
      <point x="776.537313433" y="474.447761194"/>
      <point x="770.0" y="390.776119403"/>
      <point x="770" y="346" type="qcurve" smooth="yes"/>
      <point x="770" y="342" type="line" smooth="yes"/>
      <point x="770.0" y="204.686567164"/>
      <point x="885.268656716" y="45.0"/>
      <point x="989" y="45" type="qcurve" smooth="yes"/>
      <point x="1073.32835821" y="45.0"/>
      <point x="1206.35820896" y="119.313432836"/>
      <point x="1278" y="182" type="qcurve"/>
      <point x="1321" y="131" type="line"/>
      <point x="1247.86567164" y="62.3432835821"/>
      <point x="1087.23880597" y="-20.0"/>
      <point x="985" y="-20" type="qcurve" smooth="yes"/>
      <point x="881.268656716" y="-20.0"/>
      <point x="731.104477612" y="102.791044776"/>
      <point x="702" y="211" type="qcurve"/>
      <point x="692" y="211" type="line"/>
      <point x="553.194029851" y="79.6567164179"/>
      <point x="358.746268657" y="-16.0"/>
      <point x="258" y="-16" type="qcurve" smooth="yes"/>
      <point x="163.223880597" y="-16.0"/>
      <point x="29.0" y="99.5373134328"/>
      <point x="29" y="207" type="qcurve" smooth="yes"/>
      <point x="29.0" y="390.582089552"/>
      <point x="377.0" y="624.71641791"/>
      <point x="727" y="618" type="qcurve"/>
      <point x="758" y="737" type="line" smooth="yes"/>
      <point x="765.462686567" y="766.104477612"/>
      <point x="772.0" y="816.358208955"/>
      <point x="772" y="838" type="qcurve" smooth="yes"/>
      <point x="772.0" y="918.597014925"/>
      <point x="676.492537313" y="993.0"/>
      <point x="575" y="993" type="qcurve" smooth="yes"/>
      <point x="497.388059701" y="993.0"/>
      <point x="377.268656716" y="959.044776119"/>
      <point x="281" y="918" type="qcurve"/>
      <point x="266" y="983" type="line"/>
      <point x="356.298507463" y="1019.56716418"/>
      <point x="499.701492537" y="1061.0"/>
      <point x="590" y="1061" type="qcurve" smooth="yes"/>
      <point x="721.343283582" y="1061.0"/>
      <point x="841.52238806" y="959.701492537"/>
      <point x="846" y="850" type="qcurve"/>
      <point x="854" y="850" type="line"/>
      <point x="921.164179104" y="947.76119403"/>
      <point x="1096.23880597" y="1069.0"/>
    </contour>
    <contour>
      <point x="688" y="342" type="line" smooth="yes"/>
      <point x="688.0" y="398.71641791"/>
      <point x="700.820895522" y="509.507462687"/>
      <point x="715" y="561" type="qcurve"/>
      <point x="379.925373134" y="568.462686567"/>
      <point x="115.0" y="349.328358209"/>
      <point x="115" y="215" type="qcurve" smooth="yes"/>
      <point x="115.0" y="135.895522388"/>
      <point x="211.119402985" y="47.0"/>
      <point x="285" y="47" type="qcurve" smooth="yes"/>
      <point x="358.134328358" y="47.0"/>
      <point x="545.223880597" y="140.492537313"/>
      <point x="690" y="289" type="qcurve"/>
      <point x="688.507462687" y="299.447761194"/>
      <point x="688.0" y="326.059701493"/>
      <point x="688" y="338" type="qcurve" smooth="yes"/>
    </contour>
    <contour>
      <point x="1362" y="580" type="line"/>
      <point x="1369.46268657" y="619.552238806"/>
      <point x="1376.0" y="686.432835821"/>
      <point x="1376" y="723" type="qcurve" smooth="yes"/>
      <point x="1376.0" y="834.194029851"/>
      <point x="1298.20895522" y="1004.0"/>
      <point x="1190" y="1004" type="qcurve" smooth="yes"/>
      <point x="1066.11940299" y="1004.0"/>
      <point x="843.029850746" y="761.343283582"/>
      <point x="799" y="580" type="qcurve"/>
    </contour>
  </outline>
</glyph>
<glyph name="ccedilla" format="1">
  <advance width="872.448"/>
  <unicode hex="00E7"/>
  <outline>
    <contour>
      <point x="590" y="1069" type="qcurve" smooth="yes"/>
      <point x="709.402985075" y="1069.0"/>
      <point x="838.865671642" y="921.208955224"/>
      <point x="862" y="813" type="qcurve"/>
      <point x="793" y="788" type="line"/>
      <point x="771.358208955" y="886.507462687"/>
      <point x="676.268656716" y="1004.0"/>
      <point x="580" y="1004" type="qcurve" smooth="yes"/>
      <point x="437.462686567" y="1004.0"/>
      <point x="236.268656716" y="755.402985075"/>
      <point x="190" y="586" type="qcurve" smooth="yes"/>
      <point x="173.582089552" y="524.805970149"/>
      <point x="158.0" y="407.194029851"/>
      <point x="158" y="346" type="qcurve" smooth="yes"/>
      <point x="158" y="342" type="line" smooth="yes"/>
      <point x="158.0" y="190.507462687"/>
      <point x="288.76119403" y="45.0"/>
      <point x="391" y="45" type="qcurve" smooth="yes"/>
      <point x="473.835820896" y="45.0"/>
      <point x="611.850746269" y="146.432835821"/>
      <point x="682" y="233" type="qcurve"/>
      <point x="737" y="193" type="line"/>
      <point x="660.880597015" y="94.4925373134"/>
      <point x="490.253731343" y="-17.0149253731"/>
      <point x="391" y="-20" type="qcurve"/>
      <point x="305" y="-129" type="line"/>
      <point x="328.134328358" y="-121.537313433"/>
      <point x="375.119402985" y="-115.0"/>
      <point x="399" y="-115" type="qcurve" smooth="yes"/>
      <point x="446.76119403" y="-115.0"/>
      <point x="516.0" y="-165.985074627"/>
      <point x="516" y="-213" type="qcurve" smooth="yes"/>
      <point x="516.0" y="-297.328358209"/>
      <point x="347.776119403" y="-389.0"/>
      <point x="203" y="-389" type="qcurve" smooth="yes"/>
      <point x="172.402985075" y="-389.0"/>
      <point x="103.582089552" y="-385.985074627"/>
      <point x="70" y="-383" type="qcurve"/>
      <point x="82" y="-338" type="line"/>
      <point x="105.134328358" y="-340.985074627"/>
      <point x="149.850746269" y="-344.0"/>
      <point x="170" y="-344" type="qcurve" smooth="yes"/>
      <point x="295.373134328" y="-344.0"/>
      <point x="422.0" y="-285.014925373"/>
      <point x="422" y="-238" type="qcurve" smooth="yes"/>
      <point x="422.0" y="-207.402985075"/>
      <point x="379.074626866" y="-176.0"/>
      <point x="344" y="-176" type="qcurve" smooth="yes"/>
      <point x="314.895522388" y="-176.0"/>
      <point x="259.089552239" y="-188.313432836"/>
      <point x="227" y="-201" type="qcurve"/>
      <point x="195" y="-174" type="line"/>
      <point x="328" y="-16" type="line"/>
      <point x="220.537313433" y="1.91044776119"/>
      <point x="76.0" y="183.52238806"/>
      <point x="76" y="338" type="qcurve" smooth="yes"/>
      <point x="76" y="342" type="line" smooth="yes"/>
      <point x="76.0" y="397.223880597"/>
      <point x="90.5671641791" y="515.029850746"/>
      <point x="104" y="571" type="qcurve" smooth="yes"/>
      <point x="153.253731343" y="763.537313433"/>
      <point x="401.940298507" y="1069.0"/>
    </contour>
  </outline>
</glyph>
<glyph name="divide" format="1">
  <advance width="1228.8"/>
  <unicode hex="00F7"/>
  <outline>
    <contour>
      <point x="666" y="412" type="qcurve" smooth="yes"/>
      <point x="701.074626866" y="412.0"/>
      <point x="748.0" y="365.074626866"/>
      <point x="748" y="330" type="qcurve" smooth="yes"/>
      <point x="748.0" y="294.925373134"/>
      <point x="701.074626866" y="248.0"/>
      <point x="666" y="248" type="qcurve" smooth="yes"/>
      <point x="630.179104478" y="248.0"/>
      <point x="584.0" y="294.925373134"/>
      <point x="584" y="330" type="qcurve" smooth="yes"/>
      <point x="584.0" y="365.074626866"/>
      <point x="630.179104478" y="412.0"/>
    </contour>
    <contour>
      <point x="666" y="1206" type="qcurve" smooth="yes"/>
      <point x="701.074626866" y="1206.0"/>
      <point x="748.0" y="1159.07462687"/>
      <point x="748" y="1124" type="qcurve" smooth="yes"/>
      <point x="748.0" y="1088.92537313"/>
      <point x="701.074626866" y="1042.0"/>
      <point x="666" y="1042" type="qcurve" smooth="yes"/>
      <point x="630.179104478" y="1042.0"/>
      <point x="584.0" y="1088.92537313"/>
      <point x="584" y="1124" type="qcurve" smooth="yes"/>
      <point x="584.0" y="1159.07462687"/>
      <point x="630.179104478" y="1206.0"/>
    </contour>
    <contour>
      <point x="1182" y="768" type="line"/>
      <point x="1182" y="686" type="line"/>
      <point x="150" y="686" type="line"/>
      <point x="150" y="768" type="line"/>
    </contour>
  </outline>
</glyph>
<glyph name="dotlessi" format="1">
  <advance width="434.176"/>
  <unicode hex="0131"/>
  <outline>
    <contour>
      <point x="307" y="1049" type="line"/>
      <point x="389" y="1049" type="line"/>
      <point x="127" y="0" type="line"/>
      <point x="45" y="0" type="line"/>
    </contour>
  </outline>
</glyph>
<glyph name="Lslash" format="1">
  <advance width="1095.68"/>
  <unicode hex="0141"/>
  <outline>
    <contour>
      <point x="238" y="74" type="line"/>
      <point x="948" y="74" type="line"/>
      <point x="930" y="0" type="line"/>
      <point x="129" y="0" type="line"/>
      <point x="301" y="694" type="line"/>
      <point x="80" y="600" type="line"/>
      <point x="102" y="686" type="line"/>
      <point x="322" y="778" type="line"/>
      <point x="496" y="1475" type="line"/>
      <point x="586" y="1475" type="line"/>
      <point x="424" y="823" type="line"/>
      <point x="772" y="971" type="line"/>
      <point x="752" y="885" type="line"/>
      <point x="403" y="737" type="line"/>
    </contour>
  </outline>
</glyph>
<glyph name="lslash" format="1">
  <advance width="577.536"/>
  <unicode hex="0142"/>
  <outline>
    <contour>
      <point x="399" y="809" type="line"/>
      <point x="606" y="897" type="line"/>
      <point x="586" y="815" type="line"/>
      <point x="379" y="727" type="line"/>
      <point x="199" y="0" type="line"/>
      <point x="117" y="0" type="line"/>
      <point x="289" y="690" type="line"/>
      <point x="82" y="602" type="line"/>
      <point x="102" y="684" type="line"/>
      <point x="309" y="770" type="line"/>
      <point x="494" y="1516" type="line"/>
      <point x="586" y="1561" type="line"/>
    </contour>
  </outline>
</glyph>
<glyph name="OE" format="1">
  <advance width="1806.336"/>
  <unicode hex="0152"/>
  <outline>
    <contour>
      <point x="991" y="1475" type="qcurve" smooth="yes"/>
      <point x="1931" y="1475" type="line"/>
      <point x="1913" y="1401" type="line"/>
      <point x="1229" y="1401" type="line"/>
      <point x="1081" y="811" type="line"/>
      <point x="1657" y="811" type="line"/>
      <point x="1640" y="737" type="line"/>
      <point x="1065" y="737" type="line"/>
      <point x="899" y="74" type="line"/>
      <point x="1608" y="74" type="line"/>
      <point x="1589" y="0" type="line"/>
      <point x="688" y="0" type="line" smooth="yes"/>
      <point x="455.910447761" y="0.0"/>
      <point x="145.0" y="260.358208955"/>
      <point x="145" y="532" type="qcurve" smooth="yes"/>
      <point x="145" y="537" type="line" smooth="yes"/>
      <point x="145.0" y="605.656716418"/>
      <point x="158.567164179" y="720.805970149"/>
      <point x="172" y="782" type="qcurve" smooth="yes"/>
      <point x="245.134328358" y="1101.40298507"/>
      <point x="708.164179104" y="1475.0"/>
    </contour>
    <contour>
      <point x="811" y="74" type="line"/>
      <point x="1141" y="1401" type="line"/>
      <point x="985" y="1401" type="line" smooth="yes"/>
      <point x="740.223880597" y="1401.0"/>
      <point x="340.388059701" y="1080.88059701"/>
      <point x="268" y="807" type="qcurve" smooth="yes"/>
      <point x="253.074626866" y="748.791044776"/>
      <point x="236.0" y="608.164179104"/>
      <point x="236" y="541" type="qcurve" smooth="yes"/>
      <point x="236" y="537" type="line" smooth="yes"/>
      <point x="236.0" y="305.656716418"/>
      <point x="492.507462687" y="74.0"/>
      <point x="694" y="74" type="qcurve" smooth="yes"/>
    </contour>
  </outline>
</glyph>
<glyph name="oe" format="1">
  <advance width="1599.488"/>
  <unicode hex="0153"/>
  <outline>
    <contour>
      <point x="1274" y="1069" type="qcurve" smooth="yes"/>
      <point x="1425.49253731" y="1069.0"/>
      <point x="1540.0" y="849.388059701"/>
      <point x="1540" y="727" type="qcurve" smooth="yes"/>
      <point x="1540.0" y="678.492537313"/>
      <point x="1523.68656716" y="559.52238806"/>
      <point x="1511" y="514" type="qcurve"/>
      <point x="868" y="514" type="line"/>
      <point x="860.537313433" y="474.447761194"/>
      <point x="854.0" y="390.776119403"/>
      <point x="854" y="346" type="qcurve" smooth="yes"/>
      <point x="854" y="342" type="line" smooth="yes"/>
      <point x="854.0" y="201.701492537"/>
      <point x="971.298507463" y="45.0"/>
      <point x="1081" y="45" type="qcurve" smooth="yes"/>
      <point x="1154.88059701" y="45.0"/>
      <point x="1288.35820896" y="119.313432836"/>
      <point x="1360" y="182" type="qcurve"/>
      <point x="1403" y="131" type="line"/>
      <point x="1329.86567164" y="62.3432835821"/>
      <point x="1171.7761194" y="-20.0"/>
      <point x="1077" y="-20" type="qcurve" smooth="yes"/>
      <point x="953.119402985" y="-20.0"/>
      <point x="802.462686567" y="148.044776119"/>
      <point x="795" y="307" type="qcurve"/>
      <point x="776" y="307" type="line"/>
      <point x="713.313432836" y="169.686567164"/>
      <point x="503.805970149" y="-20.0"/>
      <point x="365" y="-20" type="qcurve" smooth="yes"/>
      <point x="247.089552239" y="-20.0"/>
      <point x="76.0" y="163.373134328"/>
      <point x="76" y="338" type="qcurve" smooth="yes"/>
      <point x="76" y="342" type="line" smooth="yes"/>
      <point x="76.0" y="395.731343284"/>
      <point x="88.5671641791" y="507.268656716"/>
      <point x="102" y="561" type="qcurve" smooth="yes"/>
      <point x="151.253731343" y="761.0"/>
      <point x="404.865671642" y="1069.0"/>
      <point x="578" y="1069" type="qcurve" smooth="yes"/>
      <point x="704.865671642" y="1069.0"/>
      <point x="860.029850746" y="891.47761194"/>
      <point x="866" y="737" type="qcurve"/>
      <point x="879" y="737" type="line"/>
      <point x="944.671641791" y="885.507462687"/>
      <point x="1150.11940299" y="1069.0"/>
    </contour>
    <contour>
      <point x="774" y="465" type="qcurve" smooth="yes"/>
      <point x="789.671641791" y="524.701492537"/>
      <point x="805.0" y="640.537313433"/>
      <point x="805" y="698" type="qcurve" smooth="yes"/>
      <point x="805" y="702" type="line" smooth="yes"/>
      <point x="805.0" y="846.029850746"/>
      <point x="678.970149254" y="1004.0"/>
      <point x="573" y="1004" type="qcurve" smooth="yes"/>
      <point x="437.179104478" y="1004.0"/>
      <point x="233.28358209" y="751.910447761"/>
      <point x="190" y="584" type="qcurve" smooth="yes"/>
      <point x="175.074626866" y="524.298507463"/>
      <point x="160.0" y="408.208955224"/>
      <point x="160" y="350" type="qcurve" smooth="yes"/>
      <point x="160" y="346" type="line" smooth="yes"/>
      <point x="160.0" y="194.507462687"/>
      <point x="281.686567164" y="45.0"/>
      <point x="369" y="45" type="qcurve" smooth="yes"/>
      <point x="515.268656716" y="45.0"/>
      <point x="732.955223881" y="300.074626866"/>
    </contour>
    <contour>
      <point x="1444" y="580" type="line"/>
      <point x="1451.46268657" y="619.552238806"/>
      <point x="1458.0" y="686.432835821"/>
      <point x="1458" y="723" type="qcurve" smooth="yes"/>
      <point x="1458.0" y="834.194029851"/>
      <point x="1375.19402985" y="1004.0"/>
      <point x="1264" y="1004" type="qcurve" smooth="yes"/>
      <point x="1146.08955224" y="1004.0"/>
      <point x="927.029850746" y="761.343283582"/>
      <point x="883" y="580" type="qcurve"/>
    </contour>
  </outline>
</glyph>
<glyph name="circumflex" format="1">
  <advance width="1024.0"/>
  <unicode hex="02C6"/>
  <outline>
    <contour>
      <point x="805" y="1522" type="line"/>
      <point x="985" y="1202" type="line"/>
      <point x="936" y="1202" type="line"/>
      <point x="743" y="1436" type="line"/>
      <point x="436" y="1202" type="line"/>
      <point x="375" y="1202" type="line"/>
      <point x="715" y="1522" type="line"/>
    </contour>
  </outline>
</glyph>
<glyph name="caron" format="1">
  <advance width="1024.0"/>
  <unicode hex="02C7"/>
  <outline>
    <contour>
      <point x="1006" y="1532" type="line"/>
      <point x="1067" y="1532" type="line"/>
      <point x="727" y="1212" type="line"/>
      <point x="637" y="1212" type="line"/>
      <point x="457" y="1532" type="line"/>
      <point x="506" y="1532" type="line"/>
      <point x="698" y="1298" type="line"/>
    </contour>
  </outline>
</glyph>
<glyph name="hungarumlaut" format="1">
  <advance width="1024.0"/>
  <unicode hex="02DD"/>
  <outline>
    <contour>
      <point x="612" y="1522" type="line"/>
      <point x="754" y="1522" type="line"/>
      <point x="416" y="1212" type="line"/>
      <point x="352" y="1212" type="line"/>
    </contour>
    <contour>
      <point x="944" y="1522" type="line"/>
      <point x="1085" y="1522" type="line"/>
      <point x="748" y="1212" type="line"/>
      <point x="684" y="1212" type="line"/>
    </contour>
  </outline>
</glyph>
<glyph name="endash" format="1">
  <advance width="1024.0"/>
  <unicode hex="2013"/>
  <outline>
    <contour>
      <point x="102" y="608" type="line"/>
      <point x="963" y="608" type="line"/>
      <point x="942" y="530" type="line"/>
      <point x="82" y="530" type="line"/>
    </contour>
  </outline>
</glyph>
<glyph name="quotedblbase" format="1">
  <advance width="614.4"/>
  <unicode hex="201E"/>
  <outline>
    <contour>
      <point x="51" y="154" type="line"/>
      <point x="172" y="154" type="line"/>
      <point x="-68" y="-246" type="line"/>
      <point x="-133" y="-246" type="line"/>
    </contour>
    <contour>
      <point x="317" y="154" type="line"/>
      <point x="438" y="154" type="line"/>
      <point x="199" y="-246" type="line"/>
      <point x="133" y="-246" type="line"/>
    </contour>
  </outline>
</glyph>
<glyph name="dagger" format="1">
  <advance width="856.064"/>
  <unicode hex="2020"/>
  <outline>
    <contour>
      <point x="580" y="1030" type="line"/>
      <point x="918" y="1055" type="line"/>
      <point x="897" y="971" type="line"/>
      <point x="571" y="993" type="line"/>
      <point x="524" y="711" type="line"/>
      <point x="317" y="0" type="line"/>
      <point x="276" y="0" type="line"/>
      <point x="422" y="711" type="line"/>
      <point x="518" y="993" type="line"/>
      <point x="180" y="971" type="line"/>
      <point x="201" y="1055" type="line"/>
      <point x="526" y="1030" type="line"/>
      <point x="612" y="1475" type="line"/>
      <point x="715" y="1475" type="line"/>
    </contour>
  </outline>
</glyph>
<glyph name="perthousand" format="1">
  <advance width="2396.16"/>
  <unicode hex="2030"/>
  <outline>
    <contour>
      <point x="573" y="1489" type="qcurve" smooth="yes"/>
      <point x="674.492537313" y="1489.0"/>
      <point x="840.0" y="1342.50746269"/>
      <point x="840" y="1194" type="qcurve" smooth="yes"/>
      <point x="840.0" y="1026.08955224"/>
      <point x="630.910447761" y="723.0"/>
      <point x="463" y="723" type="qcurve" smooth="yes"/>
      <point x="362.253731343" y="723.0"/>
      <point x="197.0" y="869.492537313"/>
      <point x="197" y="1018" type="qcurve" smooth="yes"/>
      <point x="197.0" y="1185.91044776"/>
      <point x="405.089552239" y="1489.0"/>
    </contour>
    <contour>
      <point x="463" y="788" type="qcurve" smooth="yes"/>
      <point x="598.820895522" y="788.0"/>
      <point x="758.0" y="1056.68656716"/>
      <point x="758" y="1194" type="qcurve" smooth="yes"/>
      <point x="758.0" y="1297.73134328"/>
      <point x="658.820895522" y="1423.0"/>
      <point x="573" y="1423" type="qcurve" smooth="yes"/>
      <point x="437.179104478" y="1423.0"/>
      <point x="279.0" y="1155.31343284"/>
      <point x="279" y="1018" type="qcurve" smooth="yes"/>
      <point x="279.0" y="914.268656716"/>
      <point x="377.179104478" y="788.0"/>
    </contour>
    <contour>
      <point x="1282" y="752" type="qcurve" smooth="yes"/>
      <point x="1382.74626866" y="752.0"/>
      <point x="1548.0" y="604.76119403"/>
      <point x="1548" y="457" type="qcurve" smooth="yes"/>
      <point x="1548.0" y="288.343283582"/>
      <point x="1339.65671642" y="-14.0"/>
      <point x="1171" y="-14" type="qcurve" smooth="yes"/>
      <point x="1070.25373134" y="-14.0"/>
      <point x="905.0" y="132.492537313"/>
      <point x="905" y="281" type="qcurve" smooth="yes"/>
      <point x="905.0" y="448.910447761"/>
      <point x="1114.08955224" y="752.0"/>
    </contour>
    <contour>
      <point x="1171" y="51" type="qcurve" smooth="yes"/>
      <point x="1307.56716418" y="51.0"/>
      <point x="1466.0" y="318.940298507"/>
      <point x="1466" y="457" type="qcurve" smooth="yes"/>
      <point x="1466.0" y="560.731343284"/>
      <point x="1367.82089552" y="686.0"/>
      <point x="1282" y="686" type="qcurve" smooth="yes"/>
      <point x="1146.17910448" y="686.0"/>
      <point x="987.0" y="418.313432836"/>
      <point x="987" y="281" type="qcurve" smooth="yes"/>
      <point x="987.0" y="176.52238806"/>
      <point x="1085.92537313" y="51.0"/>
    </contour>
    <contour>
      <point x="2040" y="752" type="qcurve" smooth="yes"/>
      <point x="2140.74626866" y="752.0"/>
      <point x="2306.0" y="604.76119403"/>
      <point x="2306" y="457" type="qcurve" smooth="yes"/>
      <point x="2306.0" y="288.343283582"/>
      <point x="2096.91044776" y="-14.0"/>
      <point x="1929" y="-14" type="qcurve" smooth="yes"/>
      <point x="1828.25373134" y="-14.0"/>
      <point x="1663.0" y="132.492537313"/>
      <point x="1663" y="281" type="qcurve" smooth="yes"/>
      <point x="1663.0" y="448.910447761"/>
      <point x="1872.08955224" y="752.0"/>
    </contour>
    <contour>
      <point x="1929" y="51" type="qcurve" smooth="yes"/>
      <point x="2064.82089552" y="51.0"/>
      <point x="2224.0" y="318.940298507"/>
      <point x="2224" y="457" type="qcurve" smooth="yes"/>
      <point x="2224.0" y="560.731343284"/>
      <point x="2125.07462687" y="686.0"/>
      <point x="2040" y="686" type="qcurve" smooth="yes"/>
      <point x="1904.17910448" y="686.0"/>
      <point x="1745.0" y="418.313432836"/>
      <point x="1745" y="281" type="qcurve" smooth="yes"/>
      <point x="1745.0" y="176.52238806"/>
      <point x="1843.92537313" y="51.0"/>
    </contour>
    <contour>
      <point x="1462" y="1475" type="line"/>
      <point x="1548" y="1475" type="line"/>
      <point x="901" y="723" type="line"/>
      <point x="283" y="0" type="line"/>
      <point x="197" y="0" type="line"/>
      <point x="844" y="752" type="line"/>
    </contour>
  </outline>
</glyph>
<glyph name="guilsinglleft" format="1">
  <advance width="526.336"/>
  <unicode hex="2039"/>
  <outline>
    <contour>
      <point x="473" y="885" type="line"/>
      <point x="547" y="885" type="line"/>
      <point x="172" y="514" type="line"/>
      <point x="358" y="164" type="line"/>
      <point x="293" y="164" type="line"/>
      <point x="66" y="524" type="line"/>
    </contour>
  </outline>
</glyph>
<glyph name="fraction" format="1">
  <advance width="737.28"/>
  <unicode hex="2044"/>
  <outline>
    <contour>
      <point x="930" y="1505" type="line"/>
      <point x="1022" y="1505" type="line"/>
      <point x="-86" y="-31" type="line"/>
      <point x="-178" y="-31" type="line"/>
    </contour>
  </outline>
</glyph>
<glyph name="uni2117" format="1">
  <advance width="1720.32"/>
  <unicode hex="2117"/>
  <outline>
    <contour>
      <point x="913" y="1499" type="qcurve" smooth="yes"/>
      <point x="1233.89552239" y="1499.0"/>
      <point x="1675.0" y="1057.89552239"/>
      <point x="1675" y="737" type="qcurve" smooth="yes"/>
      <point x="1675.0" y="416.104477612"/>
      <point x="1233.89552239" y="-25.0"/>
      <point x="913" y="-25" type="qcurve" smooth="yes"/>
      <point x="592.104477612" y="-25.0"/>
      <point x="152.0" y="416.104477612"/>
      <point x="152" y="737" type="qcurve" smooth="yes"/>
      <point x="152.0" y="1057.89552239"/>
      <point x="592.104477612" y="1499.0"/>
    </contour>
    <contour>
      <point x="913" y="37" type="qcurve" smooth="yes"/>
      <point x="1208.52238806" y="37.0"/>
      <point x="1606.0" y="442.223880597"/>
      <point x="1606" y="737" type="qcurve" smooth="yes"/>
      <point x="1606.0" y="1032.52238806"/>
      <point x="1208.52238806" y="1438.0"/>
      <point x="913" y="1438" type="qcurve" smooth="yes"/>
      <point x="618.223880597" y="1438.0"/>
      <point x="221.0" y="1032.52238806"/>
      <point x="221" y="737" type="qcurve" smooth="yes"/>
      <point x="221.0" y="442.223880597"/>
      <point x="618.223880597" y="37.0"/>
    </contour>
    <contour>
      <point x="950" y="1151" type="line" smooth="yes"/>
      <point x="1078.35820896" y="1151.0"/>
      <point x="1223.0" y="1023.44776119"/>
      <point x="1223" y="913" type="qcurve" smooth="yes"/>
      <point x="1223.0" y="803.298507463"/>
      <point x="1076.8358209" y="674.0"/>
      <point x="944" y="674" type="qcurve" smooth="yes"/>
      <point x="793" y="674" type="line"/>
      <point x="793" y="330" type="line"/>
      <point x="709" y="330" type="line"/>
      <point x="709" y="1151" type="line"/>
    </contour>
    <contour>
      <point x="950" y="748" type="line" smooth="yes"/>
      <point x="1040.29850746" y="748.0"/>
      <point x="1139.0" y="830.402985075"/>
      <point x="1139" y="911" type="qcurve" smooth="yes"/>
      <point x="1139.0" y="989.358208955"/>
      <point x="1040.26865672" y="1077.0"/>
      <point x="944" y="1077" type="qcurve" smooth="yes"/>
      <point x="793" y="1077" type="line"/>
      <point x="793" y="748" type="line"/>
    </contour>
  </outline>
</glyph>
<glyph name="radical" format="1">
  <advance width="1126.4"/>
  <unicode hex="221A"/>
  <outline>
    <contour>
      <point x="1178" y="1475" type="line"/>
      <point x="1274" y="1475" type="line"/>
      <point x="403" y="-6" type="line"/>
      <point x="319" y="-6" type="line"/>
      <point x="147" y="696" type="line"/>
      <point x="236" y="696" type="line"/>
      <point x="375" y="78" type="line"/>
    </contour>
  </outline>
</glyph>
<glyph name="apple" format="1">
  <advance width="1024.0"/>
  <unicode hex="F8FF"/>
  <outline>
    <contour>
      <point x="1087" y="1192" type="line"/>
      <point x="1096" y="1100" type="line"/>
      <point x="684" y="1038" type="line"/>
      <point x="862" y="709" type="line"/>
      <point x="862" y="705" type="line"/>
      <point x="528" y="426" type="line"/>
      <point x="887" y="287" type="line"/>
      <point x="834" y="201" type="line"/>
      <point x="500" y="393" type="line"/>
      <point x="426" y="0" type="line"/>
      <point x="326" y="0" type="line"/>
      <point x="459" y="395" type="line"/>
      <point x="43" y="283" type="line"/>
      <point x="35" y="375" type="line"/>
      <point x="446" y="436" type="line"/>
      <point x="268" y="766" type="line"/>
      <point x="268" y="770" type="line"/>
      <point x="602" y="1049" type="line"/>
      <point x="244" y="1188" type="line"/>
      <point x="297" y="1274" type="line"/>
      <point x="631" y="1081" type="line"/>
      <point x="705" y="1475" type="line"/>
      <point x="805" y="1475" type="line"/>
      <point x="672" y="1079" type="line"/>
    </contour>
    <contour>
      <point x="494" y="453" type="line"/>
      <point x="758" y="717" type="line"/>
      <point x="637" y="1022" type="line"/>
      <point x="373" y="758" type="line"/>
    </contour>
  </outline>
</glyph>
<glyph name="fl" format="1">
  <advance width="1058.816"/>
  <unicode hex="FB02"/>
  <outline>
    <contour>
      <point x="723" y="1554" type="qcurve" smooth="yes"/>
      <point x="775.23880597" y="1554.0"/>
      <point x="870.402985075" y="1528.1641791"/>
      <point x="901" y="1511" type="qcurve"/>
      <point x="881" y="1436" type="line"/>
      <point x="850.402985075" y="1455.40298507"/>
      <point x="763.955223881" y="1489.0"/>
      <point x="705" y="1489" type="qcurve" smooth="yes"/>
      <point x="642.313432836" y="1489.0"/>
      <point x="550.626865672" y="1404.25373134"/>
      <point x="526" y="1305" type="qcurve" smooth="yes"/>
      <point x="461" y="1038" type="line"/>
      <point x="727" y="1038" type="line"/>
      <point x="711" y="973" type="line"/>
      <point x="444" y="973" type="line"/>
      <point x="106" y="-385" type="line"/>
      <point x="25" y="-385" type="line"/>
      <point x="362" y="973" type="line"/>
      <point x="145" y="973" type="line"/>
      <point x="162" y="1038" type="line"/>
      <point x="379" y="1038" type="line"/>
      <point x="444" y="1307" type="line" smooth="yes"/>
      <point x="476.089552239" y="1436.85074627"/>
      <point x="619.268656716" y="1554.0"/>
    </contour>
    <contour>
      <point x="1047" y="1516" type="line"/>
      <point x="1139" y="1561" type="line"/>
      <point x="752" y="0" type="line"/>
      <point x="670" y="0" type="line"/>
    </contour>
  </outline>
</glyph>
<glyph name="bullet" format="1">
  <advance width="696.32"/>
  <outline>
    <contour>
      <point x="408" y="983" type="qcurve" smooth="yes"/>
      <point x="499.044776119" y="983.0"/>
      <point x="627.0" y="855.791044776"/>
      <point x="627" y="764" type="qcurve" smooth="yes"/>
      <point x="627.0" y="672.208955224"/>
      <point x="499.044776119" y="545.0"/>
      <point x="408" y="545" type="qcurve" smooth="yes"/>
      <point x="316.208955224" y="545.0"/>
      <point x="188.0" y="672.208955224"/>
      <point x="188" y="764" type="qcurve" smooth="yes"/>
      <point x="188.0" y="855.791044776"/>
      <point x="316.208955224" y="983.0"/>
    </contour>
  </outline>
</glyph>
<glyph name="macron" format="1">
  <advance width="1024.0"/>
  <outline>
    <contour>
      <point x="444" y="1382" type="line"/>
      <point x="1001" y="1382" type="line"/>
      <point x="981" y="1296" type="line"/>
      <point x="424" y="1296" type="line"/>
    </contour>
  </outline>
</glyph>
